<svg width="239" height="231" xmlns="http://www.w3.org/2000/svg" xmlns:xlink="http://www.w3.org/1999/xlink" overflow="hidden"><defs><clipPath id="clip0"><path d="M913 451 1152 451 1152 682 913 682Z" fill-rule="evenodd" clip-rule="evenodd"/></clipPath><clipPath id="clip1"><path d="M939 463 1126 463 1126 649 939 649Z" fill-rule="evenodd" clip-rule="evenodd"/></clipPath><clipPath id="clip2"><path d="M939 463 1126 463 1126 649 939 649Z" fill-rule="evenodd" clip-rule="evenodd"/></clipPath><clipPath id="clip3"><path d="M939 463 1126 463 1126 649 939 649Z" fill-rule="evenodd" clip-rule="evenodd"/></clipPath></defs><g clip-path="url(#clip0)" transform="translate(-913 -451)"><path d="M914.5 490.668C914.5 469.588 931.588 452.5 952.668 452.5L1112.33 452.5C1133.41 452.5 1150.5 469.588 1150.5 490.668L1150.5 643.333C1150.5 664.412 1133.41 681.5 1112.33 681.5L952.668 681.5C931.588 681.5 914.5 664.412 914.5 643.333Z" stroke="#2F528F" stroke-miterlimit="8" fill="#003C57" fill-rule="evenodd"/><g clip-path="url(#clip1)"><g clip-path="url(#clip2)"><g clip-path="url(#clip3)"><path d="M93 38.75C95.1312 38.75 96.875 40.4937 96.875 42.625 96.875 44.7563 95.1312 46.5 93 46.5 90.8688 46.5 89.125 44.7563 89.125 42.625 89.125 40.4937 90.8688 38.75 93 38.75ZM116.25 155C116.25 152.869 114.506 151.125 112.375 151.125L98.8125 151.125 98.8125 52.7C100.556 51.7313 102.106 50.1812 103.075 48.4375L140.275 48.4375 129.425 104.625 137.369 104.625 145.894 60.45 156.744 104.625 164.688 104.625 150.544 48.4375 153.063 48.4375C156.356 48.4375 158.875 45.9188 158.875 42.625 158.875 39.3312 156.356 36.8125 153.063 36.8125L103.075 36.8125C102.106 35.0688 100.556 33.5187 98.8125 32.55L98.8125 21.3125C98.8125 18.0188 96.2938 15.5 93 15.5 89.7062 15.5 87.1875 18.0188 87.1875 21.3125L87.1875 32.55C85.4437 33.5187 83.8937 35.0688 82.925 36.8125L32.9375 36.8125C29.6438 36.8125 27.125 39.3312 27.125 42.625 27.125 45.3375 29.0625 47.8563 31.775 48.2437L20.7312 104.625 28.675 104.625 37.2 60.45 48.2437 104.625 56.1875 104.625 42.0438 48.4375 82.7313 48.4375C83.7 50.1812 85.25 51.7313 86.9938 52.7L86.9938 151.125 73.4313 151.125C71.3 151.125 69.5563 152.869 69.5563 155L69.5563 158.875 46.5 158.875 46.5 170.5 139.5 170.5 139.5 158.875 116.25 158.875 116.25 155Z" fill="#FE6900" transform="matrix(1.00538 0 -0 1 939 463)"/><path d="M62 110.438 15.5 110.438C15.5 116.831 25.9625 122.063 38.75 122.063 51.5375 122.063 62 116.831 62 110.438Z" fill="#FE6900" transform="matrix(1.00538 0 -0 1 939 463)"/><path d="M124 110.438C124 116.831 134.463 122.063 147.25 122.063 160.037 122.063 170.5 116.831 170.5 110.438L124 110.438Z" fill="#FE6900" transform="matrix(1.00538 0 -0 1 939 463)"/></g></g></g></g></svg>