<svg width="1282" height="731" xmlns="http://www.w3.org/2000/svg" xmlns:xlink="http://www.w3.org/1999/xlink" overflow="hidden"><defs><clipPath id="clip0"><path d="M-1-1 1281-1 1281 730-1 730Z" fill-rule="evenodd" clip-rule="evenodd"/></clipPath></defs><g clip-path="url(#clip0)" transform="translate(1 1)"><rect x="0" y="0" width="1280" height="729" fill="#EFEFEF"/><path d="M184 83 273 83.0001 273 91.0001 184 91ZM269 75.0001 293 87.0001 269 99.0001Z" fill="#FE6900"/><path d="M482 392 482 514.021 474 514.021 474 392ZM490 510.021 478 534.021 466 510.021Z" fill="#FE6900"/><path d="M883 378 883 500.021 875 500.021 875 378ZM891 496.021 879 520.021 867 496.021Z" fill="#FE6900"/><path d="M464 67 508.532 67 508.532 108.416 500.532 108.416 500.532 71 504.532 75 464 75ZM516.532 104.416 504.532 128.416 492.532 104.416Z" fill="#FE6900"/><path d="M640 254 700 254 700 262 640 262ZM696 246 720 258 696 270Z" fill="#FE6900"/><path d="M1055 267 1099.53 267 1099.53 308.416 1091.53 308.416 1091.53 271 1095.53 275 1055 275ZM1107.53 304.416 1095.53 328.416 1083.53 304.416Z" fill="#FE6900"/><text font-family="Calibri,Calibri_MSFontService,sans-serif" font-weight="400" font-size="24" transform="translate(1055.6 259)">Yes<tspan x="-400.5" y="-17">Yes</tspan></text><text font-family="Calibri,Calibri_MSFontService,sans-serif" font-weight="400" font-size="24" transform="matrix(6.12323e-17 1 -1 6.12323e-17 501.641 431)">No<tspan x="-5" y="-397.106">No</tspan></text><path d="M1153.09 520 1153.09 636 1048 636 1048 628 1149.09 628 1145.09 632 1145.09 520ZM1052 644 1028 632 1052 620Z" fill="#FE6900"/></g></svg>