<svg width="1068" height="480" xmlns="http://www.w3.org/2000/svg" xmlns:xlink="http://www.w3.org/1999/xlink" overflow="hidden"><defs><clipPath id="clip0"><path d="M19 41 1087 41 1087 521 19 521Z" fill-rule="evenodd" clip-rule="evenodd"/></clipPath><clipPath id="clip1"><path d="M20-64 154-64 154 295 20 295Z" fill-rule="evenodd" clip-rule="evenodd"/></clipPath><clipPath id="clip2"><path d="M20-64 154-64 154 295 20 295Z" fill-rule="evenodd" clip-rule="evenodd"/></clipPath><clipPath id="clip3"><path d="M153 13 287 13 287 193 153 193Z" fill-rule="evenodd" clip-rule="evenodd"/></clipPath><clipPath id="clip4"><path d="M286-64 420-64 420 295 286 295Z" fill-rule="evenodd" clip-rule="evenodd"/></clipPath><clipPath id="clip5"><path d="M286-64 420-64 420 295 286 295Z" fill-rule="evenodd" clip-rule="evenodd"/></clipPath><clipPath id="clip6"><path d="M419-64 553-64 553 295 419 295Z" fill-rule="evenodd" clip-rule="evenodd"/></clipPath><clipPath id="clip7"><path d="M419-64 553-64 553 295 419 295Z" fill-rule="evenodd" clip-rule="evenodd"/></clipPath><clipPath id="clip8"><path d="M552-64 686-64 686 295 552 295Z" fill-rule="evenodd" clip-rule="evenodd"/></clipPath><clipPath id="clip9"><path d="M552-64 686-64 686 295 552 295Z" fill-rule="evenodd" clip-rule="evenodd"/></clipPath><clipPath id="clip10"><path d="M685-64 819-64 819 295 685 295Z" fill-rule="evenodd" clip-rule="evenodd"/></clipPath><clipPath id="clip11"><path d="M685-64 819-64 819 295 685 295Z" fill-rule="evenodd" clip-rule="evenodd"/></clipPath><clipPath id="clip12"><path d="M818 13 952 13 952 193 818 193Z" fill-rule="evenodd" clip-rule="evenodd"/></clipPath><clipPath id="clip13"><path d="M951 13 1085 13 1085 193 951 193Z" fill-rule="evenodd" clip-rule="evenodd"/></clipPath><clipPath id="clip14"><path d="M20 93 154 93 154 273 20 273Z" fill-rule="evenodd" clip-rule="evenodd"/></clipPath><clipPath id="clip15"><path d="M153 93 287 93 287 273 153 273Z" fill-rule="evenodd" clip-rule="evenodd"/></clipPath><clipPath id="clip16"><path d="M286 93 420 93 420 273 286 273Z" fill-rule="evenodd" clip-rule="evenodd"/></clipPath><clipPath id="clip17"><path d="M419 93 553 93 553 273 419 273Z" fill-rule="evenodd" clip-rule="evenodd"/></clipPath><clipPath id="clip18"><path d="M552 93 686 93 686 273 552 273Z" fill-rule="evenodd" clip-rule="evenodd"/></clipPath><clipPath id="clip19"><path d="M685 93 819 93 819 273 685 273Z" fill-rule="evenodd" clip-rule="evenodd"/></clipPath><clipPath id="clip20"><path d="M818 93 952 93 952 273 818 273Z" fill-rule="evenodd" clip-rule="evenodd"/></clipPath><clipPath id="clip21"><path d="M951 93 1085 93 1085 273 951 273Z" fill-rule="evenodd" clip-rule="evenodd"/></clipPath><clipPath id="clip22"><path d="M20 152 154 152 154 332 20 332Z" fill-rule="evenodd" clip-rule="evenodd"/></clipPath><clipPath id="clip23"><path d="M153 152 287 152 287 332 153 332Z" fill-rule="evenodd" clip-rule="evenodd"/></clipPath><clipPath id="clip24"><path d="M286 152 420 152 420 332 286 332Z" fill-rule="evenodd" clip-rule="evenodd"/></clipPath><clipPath id="clip25"><path d="M419 152 553 152 553 332 419 332Z" fill-rule="evenodd" clip-rule="evenodd"/></clipPath><clipPath id="clip26"><path d="M552 152 686 152 686 332 552 332Z" fill-rule="evenodd" clip-rule="evenodd"/></clipPath><clipPath id="clip27"><path d="M685 152 819 152 819 332 685 332Z" fill-rule="evenodd" clip-rule="evenodd"/></clipPath><clipPath id="clip28"><path d="M818 152 952 152 952 332 818 332Z" fill-rule="evenodd" clip-rule="evenodd"/></clipPath><clipPath id="clip29"><path d="M951 152 1085 152 1085 332 951 332Z" fill-rule="evenodd" clip-rule="evenodd"/></clipPath><clipPath id="clip30"><path d="M20 211 154 211 154 391 20 391Z" fill-rule="evenodd" clip-rule="evenodd"/></clipPath><clipPath id="clip31"><path d="M153 211 287 211 287 391 153 391Z" fill-rule="evenodd" clip-rule="evenodd"/></clipPath><clipPath id="clip32"><path d="M286 211 420 211 420 391 286 391Z" fill-rule="evenodd" clip-rule="evenodd"/></clipPath><clipPath id="clip33"><path d="M419 211 553 211 553 391 419 391Z" fill-rule="evenodd" clip-rule="evenodd"/></clipPath><clipPath id="clip34"><path d="M552 211 686 211 686 391 552 391Z" fill-rule="evenodd" clip-rule="evenodd"/></clipPath><clipPath id="clip35"><path d="M685 211 819 211 819 391 685 391Z" fill-rule="evenodd" clip-rule="evenodd"/></clipPath><clipPath id="clip36"><path d="M818 211 952 211 952 391 818 391Z" fill-rule="evenodd" clip-rule="evenodd"/></clipPath><clipPath id="clip37"><path d="M951 211 1085 211 1085 391 951 391Z" fill-rule="evenodd" clip-rule="evenodd"/></clipPath><clipPath id="clip38"><path d="M20 270 154 270 154 450 20 450Z" fill-rule="evenodd" clip-rule="evenodd"/></clipPath><clipPath id="clip39"><path d="M153 270 287 270 287 450 153 450Z" fill-rule="evenodd" clip-rule="evenodd"/></clipPath><clipPath id="clip40"><path d="M286 270 420 270 420 450 286 450Z" fill-rule="evenodd" clip-rule="evenodd"/></clipPath><clipPath id="clip41"><path d="M419 270 553 270 553 450 419 450Z" fill-rule="evenodd" clip-rule="evenodd"/></clipPath><clipPath id="clip42"><path d="M552 270 686 270 686 450 552 450Z" fill-rule="evenodd" clip-rule="evenodd"/></clipPath><clipPath id="clip43"><path d="M685 270 819 270 819 450 685 450Z" fill-rule="evenodd" clip-rule="evenodd"/></clipPath><clipPath id="clip44"><path d="M818 270 952 270 952 450 818 450Z" fill-rule="evenodd" clip-rule="evenodd"/></clipPath><clipPath id="clip45"><path d="M951 270 1085 270 1085 450 951 450Z" fill-rule="evenodd" clip-rule="evenodd"/></clipPath><clipPath id="clip46"><path d="M20 329 154 329 154 509 20 509Z" fill-rule="evenodd" clip-rule="evenodd"/></clipPath><clipPath id="clip47"><path d="M153 329 287 329 287 509 153 509Z" fill-rule="evenodd" clip-rule="evenodd"/></clipPath><clipPath id="clip48"><path d="M286 329 420 329 420 509 286 509Z" fill-rule="evenodd" clip-rule="evenodd"/></clipPath><clipPath id="clip49"><path d="M419 329 553 329 553 509 419 509Z" fill-rule="evenodd" clip-rule="evenodd"/></clipPath><clipPath id="clip50"><path d="M552 329 686 329 686 509 552 509Z" fill-rule="evenodd" clip-rule="evenodd"/></clipPath><clipPath id="clip51"><path d="M685 329 819 329 819 509 685 509Z" fill-rule="evenodd" clip-rule="evenodd"/></clipPath><clipPath id="clip52"><path d="M818 329 952 329 952 509 818 509Z" fill-rule="evenodd" clip-rule="evenodd"/></clipPath><clipPath id="clip53"><path d="M951 329 1085 329 1085 509 951 509Z" fill-rule="evenodd" clip-rule="evenodd"/></clipPath><clipPath id="clip54"><path d="M20 388 154 388 154 568 20 568Z" fill-rule="evenodd" clip-rule="evenodd"/></clipPath><clipPath id="clip55"><path d="M153 388 287 388 287 568 153 568Z" fill-rule="evenodd" clip-rule="evenodd"/></clipPath><clipPath id="clip56"><path d="M286 388 420 388 420 568 286 568Z" fill-rule="evenodd" clip-rule="evenodd"/></clipPath><clipPath id="clip57"><path d="M419 388 553 388 553 568 419 568Z" fill-rule="evenodd" clip-rule="evenodd"/></clipPath><clipPath id="clip58"><path d="M552 388 686 388 686 568 552 568Z" fill-rule="evenodd" clip-rule="evenodd"/></clipPath><clipPath id="clip59"><path d="M685 388 819 388 819 568 685 568Z" fill-rule="evenodd" clip-rule="evenodd"/></clipPath><clipPath id="clip60"><path d="M818 388 952 388 952 568 818 568Z" fill-rule="evenodd" clip-rule="evenodd"/></clipPath><clipPath id="clip61"><path d="M951 388 1085 388 1085 568 951 568Z" fill-rule="evenodd" clip-rule="evenodd"/></clipPath></defs><g clip-path="url(#clip0)" transform="translate(-19 -41)"><path d="M20.0001 43.5659 153.125 43.5659 153.125 85.2634 20.0001 85.2634Z" fill="#FFFFFF" fill-rule="evenodd"/><path d="M153.125 43.5659 1085 43.5659 1085 85.2634 153.125 85.2634Z" fill="#FFFFFF" fill-rule="evenodd"/><path d="M20.0001 85.2634 153.125 85.2634 153.125 165.376 20.0001 165.376Z" fill="#FFFFFF" fill-rule="evenodd"/><path d="M153.125 85.2634 286.25 85.2634 286.25 165.376 153.125 165.376Z" fill="#FFFFFF" fill-rule="evenodd"/><path d="M286.25 85.2634 419.375 85.2634 419.375 165.376 286.25 165.376Z" fill="#FFFFFF" fill-rule="evenodd"/><path d="M419.375 85.2634 552.5 85.2634 552.5 165.376 419.375 165.376Z" fill="#FFFFFF" fill-rule="evenodd"/><path d="M552.5 85.2634 685.625 85.2634 685.625 165.376 552.5 165.376Z" fill="#FFFFFF" fill-rule="evenodd"/><path d="M685.625 85.2634 818.75 85.2634 818.75 165.376 685.625 165.376Z" fill="#FFFFFF" fill-rule="evenodd"/><path d="M818.75 85.2634 951.875 85.2634 951.875 165.376 818.75 165.376Z" fill="#FFFFFF" fill-rule="evenodd"/><path d="M951.875 85.2634 1085 85.2634 1085 165.376 951.875 165.376Z" fill="#FFFFFF" fill-rule="evenodd"/><path d="M20.0001 165.376 153.125 165.376 153.125 224.313 20.0001 224.313Z" fill="#FFFFFF" fill-rule="evenodd"/><path d="M153.125 165.376 286.25 165.376 286.25 224.313 153.125 224.313Z" fill="#FFFFFF" fill-rule="evenodd"/><path d="M286.25 165.376 419.375 165.376 419.375 224.313 286.25 224.313Z" fill="#FFFFFF" fill-rule="evenodd"/><path d="M419.375 165.376 552.5 165.376 552.5 224.313 419.375 224.313Z" fill="#FFFFFF" fill-rule="evenodd"/><path d="M552.5 165.376 685.625 165.376 685.625 224.313 552.5 224.313Z" fill="#FFFFFF" fill-rule="evenodd"/><path d="M685.625 165.376 818.75 165.376 818.75 224.313 685.625 224.313Z" fill="#FFFFFF" fill-rule="evenodd"/><path d="M818.75 165.376 951.875 165.376 951.875 224.313 818.75 224.313Z" fill="#FFFFFF" fill-rule="evenodd"/><path d="M951.875 165.376 1085 165.376 1085 224.313 951.875 224.313Z" fill="#FFFFFF" fill-rule="evenodd"/><path d="M20.0001 224.313 153.125 224.313 153.125 283.251 20.0001 283.251Z" fill="#FFFFFF" fill-rule="evenodd"/><path d="M153.125 224.313 286.25 224.313 286.25 283.251 153.125 283.251Z" fill="#FFFFFF" fill-rule="evenodd"/><path d="M286.25 224.313 419.375 224.313 419.375 283.251 286.25 283.251Z" fill="#FFFFFF" fill-rule="evenodd"/><path d="M419.375 224.313 552.5 224.313 552.5 283.251 419.375 283.251Z" fill="#FFFFFF" fill-rule="evenodd"/><path d="M552.5 224.313 685.625 224.313 685.625 283.251 552.5 283.251Z" fill="#FFFFFF" fill-rule="evenodd"/><path d="M685.625 224.313 818.75 224.313 818.75 283.251 685.625 283.251Z" fill="#FFFFFF" fill-rule="evenodd"/><path d="M818.75 224.313 951.875 224.313 951.875 283.251 818.75 283.251Z" fill="#FFFFFF" fill-rule="evenodd"/><path d="M951.875 224.313 1085 224.313 1085 283.251 951.875 283.251Z" fill="#FFFFFF" fill-rule="evenodd"/><path d="M20.0001 283.251 153.125 283.251 153.125 342.188 20.0001 342.188Z" fill="#FFFFFF" fill-rule="evenodd"/><path d="M153.125 283.251 286.25 283.251 286.25 342.188 153.125 342.188Z" fill="#FFFFFF" fill-rule="evenodd"/><path d="M286.25 283.251 419.375 283.251 419.375 342.188 286.25 342.188Z" fill="#FFFFFF" fill-rule="evenodd"/><path d="M419.375 283.251 552.5 283.251 552.5 342.188 419.375 342.188Z" fill="#FFFFFF" fill-rule="evenodd"/><path d="M552.5 283.251 685.625 283.251 685.625 342.188 552.5 342.188Z" fill="#FFFFFF" fill-rule="evenodd"/><path d="M685.625 283.251 818.75 283.251 818.75 342.188 685.625 342.188Z" fill="#FFFFFF" fill-rule="evenodd"/><path d="M818.75 283.251 951.875 283.251 951.875 342.188 818.75 342.188Z" fill="#FFFFFF" fill-rule="evenodd"/><path d="M951.875 283.251 1085 283.251 1085 342.188 951.875 342.188Z" fill="#FFFFFF" fill-rule="evenodd"/><path d="M20.0001 342.188 153.125 342.188 153.125 401.125 20.0001 401.125Z" fill="#FFFFFF" fill-rule="evenodd"/><path d="M153.125 342.188 286.25 342.188 286.25 401.125 153.125 401.125Z" fill="#FFFFFF" fill-rule="evenodd"/><path d="M286.25 342.188 419.375 342.188 419.375 401.125 286.25 401.125Z" fill="#FFFFFF" fill-rule="evenodd"/><path d="M419.375 342.188 552.5 342.188 552.5 401.125 419.375 401.125Z" fill="#FFFFFF" fill-rule="evenodd"/><path d="M552.5 342.188 685.625 342.188 685.625 401.125 552.5 401.125Z" fill="#FFFFFF" fill-rule="evenodd"/><path d="M685.625 342.188 818.75 342.188 818.75 401.125 685.625 401.125Z" fill="#FFFFFF" fill-rule="evenodd"/><path d="M818.75 342.188 951.875 342.188 951.875 401.125 818.75 401.125Z" fill="#FFFFFF" fill-rule="evenodd"/><path d="M951.875 342.188 1085 342.188 1085 401.125 951.875 401.125Z" fill="#FFFFFF" fill-rule="evenodd"/><path d="M20.0001 401.125 153.125 401.125 153.125 460.063 20.0001 460.063Z" fill="#FFFFFF" fill-rule="evenodd"/><path d="M153.125 401.125 286.25 401.125 286.25 460.063 153.125 460.063Z" fill="#FFFFFF" fill-rule="evenodd"/><path d="M286.25 401.125 419.375 401.125 419.375 460.063 286.25 460.063Z" fill="#FFFFFF" fill-rule="evenodd"/><path d="M419.375 401.125 552.5 401.125 552.5 460.063 419.375 460.063Z" fill="#FFFFFF" fill-rule="evenodd"/><path d="M552.5 401.125 685.625 401.125 685.625 460.063 552.5 460.063Z" fill="#FFFFFF" fill-rule="evenodd"/><path d="M685.625 401.125 818.75 401.125 818.75 460.063 685.625 460.063Z" fill="#FFFFFF" fill-rule="evenodd"/><path d="M818.75 401.125 951.875 401.125 951.875 460.063 818.75 460.063Z" fill="#FFFFFF" fill-rule="evenodd"/><path d="M951.875 401.125 1085 401.125 1085 460.063 951.875 460.063Z" fill="#FFFFFF" fill-rule="evenodd"/><path d="M20.0001 460.063 153.125 460.063 153.125 519 20.0001 519Z" fill="#FFFFFF" fill-rule="evenodd"/><path d="M153.125 460.063 286.25 460.063 286.25 519 153.125 519Z" fill="#FFFFFF" fill-rule="evenodd"/><path d="M286.25 460.063 419.375 460.063 419.375 519 286.25 519Z" fill="#FFFFFF" fill-rule="evenodd"/><path d="M419.375 460.063 552.5 460.063 552.5 519 419.375 519Z" fill="#FFFFFF" fill-rule="evenodd"/><path d="M552.5 460.063 685.625 460.063 685.625 519 552.5 519Z" fill="#FFFFFF" fill-rule="evenodd"/><path d="M685.625 460.063 818.75 460.063 818.75 519 685.625 519Z" fill="#FFFFFF" fill-rule="evenodd"/><path d="M818.75 460.063 951.875 460.063 951.875 519 818.75 519Z" fill="#FFFFFF" fill-rule="evenodd"/><path d="M951.875 460.063 1085 460.063 1085 519 951.875 519Z" fill="#FFFFFF" fill-rule="evenodd"/><path d="M153.125 42.8992 153.125 519.667" stroke="#000000" stroke-width="1.33333" stroke-linejoin="round" stroke-miterlimit="10" fill="none" fill-rule="evenodd"/><path d="M286.25 84.5967 286.25 519.667" stroke="#000000" stroke-width="1.33333" stroke-linejoin="round" stroke-miterlimit="10" fill="none" fill-rule="evenodd"/><path d="M419.375 84.5967 419.375 519.667" stroke="#000000" stroke-width="1.33333" stroke-linejoin="round" stroke-miterlimit="10" fill="none" fill-rule="evenodd"/><path d="M552.5 84.5967 552.5 519.667" stroke="#000000" stroke-width="1.33333" stroke-linejoin="round" stroke-miterlimit="10" fill="none" fill-rule="evenodd"/><path d="M685.625 84.5967 685.625 519.667" stroke="#000000" stroke-width="1.33333" stroke-linejoin="round" stroke-miterlimit="10" fill="none" fill-rule="evenodd"/><path d="M818.75 84.5967 818.75 519.667" stroke="#000000" stroke-width="1.33333" stroke-linejoin="round" stroke-miterlimit="10" fill="none" fill-rule="evenodd"/><path d="M951.875 84.5967 951.875 519.667" stroke="#000000" stroke-width="1.33333" stroke-linejoin="round" stroke-miterlimit="10" fill="none" fill-rule="evenodd"/><path d="M19.3334 85.2634 1085.67 85.2634" stroke="#000000" stroke-width="1.33333" stroke-linejoin="round" stroke-miterlimit="10" fill="none" fill-rule="evenodd"/><path d="M19.3334 165.376 1085.67 165.376" stroke="#000000" stroke-width="1.33333" stroke-linejoin="round" stroke-miterlimit="10" fill="none" fill-rule="evenodd"/><path d="M19.3334 224.313 1085.67 224.313" stroke="#000000" stroke-width="1.33333" stroke-linejoin="round" stroke-miterlimit="10" fill="none" fill-rule="evenodd"/><path d="M19.3334 283.251 1085.67 283.251" stroke="#000000" stroke-width="1.33333" stroke-linejoin="round" stroke-miterlimit="10" fill="none" fill-rule="evenodd"/><path d="M19.3334 342.188 1085.67 342.188" stroke="#000000" stroke-width="1.33333" stroke-linejoin="round" stroke-miterlimit="10" fill="none" fill-rule="evenodd"/><path d="M19.3334 401.125 1085.67 401.125" stroke="#000000" stroke-width="1.33333" stroke-linejoin="round" stroke-miterlimit="10" fill="none" fill-rule="evenodd"/><path d="M19.3334 460.063 1085.67 460.063" stroke="#000000" stroke-width="1.33333" stroke-linejoin="round" stroke-miterlimit="10" fill="none" fill-rule="evenodd"/><path d="M20.0001 42.8992 20.0001 519.667" stroke="#000000" stroke-width="1.33333" stroke-linejoin="round" stroke-miterlimit="10" fill="none" fill-rule="evenodd"/><path d="M1085 42.8992 1085 519.667" stroke="#000000" stroke-width="1.33333" stroke-linejoin="round" stroke-miterlimit="10" fill="none" fill-rule="evenodd"/><path d="M19.3334 43.5659 1085.67 43.5659" stroke="#000000" stroke-width="1.33333" stroke-linejoin="round" stroke-miterlimit="10" fill="none" fill-rule="evenodd"/><path d="M19.3334 519 1085.67 519" stroke="#000000" stroke-width="1.33333" stroke-linejoin="round" stroke-miterlimit="10" fill="none" fill-rule="evenodd"/><text font-family="Arial,Arial_MSFontService,sans-serif" font-weight="400" font-size="21" transform="translate(495.896 69)">Annual household Income</text><g clip-path="url(#clip1)"><text font-family="Arial,Arial_MSFontService,sans-serif" font-weight="400" font-size="21" transform="translate(29.6001 111)">Household </text></g><g clip-path="url(#clip2)"><text font-family="Arial,Arial_MSFontService,sans-serif" font-weight="400" font-size="21" transform="translate(29.6001 136)">size</text></g><g clip-path="url(#clip3)"><text font-family="Arial,Arial_MSFontService,sans-serif" font-weight="400" font-size="21" transform="translate(162.725 111)">0 to 9,999</text></g><g clip-path="url(#clip4)"><text font-family="Arial,Arial_MSFontService,sans-serif" font-weight="400" font-size="21" transform="translate(295.85 111)">10,000 to </text></g><g clip-path="url(#clip5)"><text font-family="Arial,Arial_MSFontService,sans-serif" font-weight="400" font-size="21" transform="translate(295.85 136)">19,999</text></g><g clip-path="url(#clip6)"><text font-family="Arial,Arial_MSFontService,sans-serif" font-weight="400" font-size="21" transform="translate(428.975 111)">20,000 to </text></g><g clip-path="url(#clip7)"><text font-family="Arial,Arial_MSFontService,sans-serif" font-weight="400" font-size="21" transform="translate(428.975 136)">39,999</text></g><g clip-path="url(#clip8)"><text font-family="Arial,Arial_MSFontService,sans-serif" font-weight="400" font-size="21" transform="translate(562.1 111)">40,000 to </text></g><g clip-path="url(#clip9)"><text font-family="Arial,Arial_MSFontService,sans-serif" font-weight="400" font-size="21" transform="translate(562.1 136)">59,999</text></g><g clip-path="url(#clip10)"><text font-family="Arial,Arial_MSFontService,sans-serif" font-weight="400" font-size="21" transform="translate(695.225 111)">60,000 to </text></g><g clip-path="url(#clip11)"><text font-family="Arial,Arial_MSFontService,sans-serif" font-weight="400" font-size="21" transform="translate(695.225 136)">79,999</text></g><g clip-path="url(#clip12)"><text font-family="Arial,Arial_MSFontService,sans-serif" font-weight="400" font-size="21" transform="translate(828.35 111)">80,000 +</text></g><g clip-path="url(#clip13)"><text font-family="Arial,Arial_MSFontService,sans-serif" font-weight="400" font-size="21" transform="translate(961.475 111)">Total</text></g><g clip-path="url(#clip14)"><text font-family="Arial,Arial_MSFontService,sans-serif" font-weight="400" font-size="21" transform="translate(131.6 191)">1</text></g><g clip-path="url(#clip15)"><text font-family="Arial,Arial_MSFontService,sans-serif" font-weight="400" font-size="21" transform="translate(264.725 191)">3</text></g><g clip-path="url(#clip16)"><text font-family="Arial,Arial_MSFontService,sans-serif" font-weight="400" font-size="21" transform="translate(397.85 191)">7</text></g><g clip-path="url(#clip17)"><text font-family="Arial,Arial_MSFontService,sans-serif" font-weight="400" font-size="21" transform="translate(519.142 191)">15</text></g><g clip-path="url(#clip18)"><text font-family="Arial,Arial_MSFontService,sans-serif" font-weight="400" font-size="21" transform="translate(664.1 191)">4</text></g><g clip-path="url(#clip19)"><text font-family="Arial,Arial_MSFontService,sans-serif" font-weight="400" font-size="21" transform="translate(797.225 191)">0</text></g><g clip-path="url(#clip20)"><text font-family="Arial,Arial_MSFontService,sans-serif" font-weight="400" font-size="21" transform="translate(930.35 191)">0</text></g><g clip-path="url(#clip21)"><text font-family="Arial,Arial_MSFontService,sans-serif" font-weight="400" font-size="21" transform="translate(1051.64 191)">29</text></g><g clip-path="url(#clip22)"><text font-family="Arial,Arial_MSFontService,sans-serif" font-weight="400" font-size="21" transform="translate(131.6 250)">2</text></g><g clip-path="url(#clip23)"><text font-family="Arial,Arial_MSFontService,sans-serif" font-weight="400" font-size="21" transform="translate(264.725 250)">2</text></g><g clip-path="url(#clip24)"><text font-family="Arial,Arial_MSFontService,sans-serif" font-weight="400" font-size="21" transform="translate(397.85 250)">2</text></g><g clip-path="url(#clip25)"><text font-family="Arial,Arial_MSFontService,sans-serif" font-weight="400" font-size="21" transform="translate(519.142 250)">15</text></g><g clip-path="url(#clip26)"><text font-family="Arial,Arial_MSFontService,sans-serif" font-weight="400" font-size="21" transform="translate(652.267 250)">16</text></g><g clip-path="url(#clip27)"><text font-family="Arial,Arial_MSFontService,sans-serif" font-weight="400" font-size="21" transform="translate(797.225 250)">8</text></g><g clip-path="url(#clip28)"><text font-family="Arial,Arial_MSFontService,sans-serif" font-weight="400" font-size="21" transform="translate(930.35 250)">4</text></g><g clip-path="url(#clip29)"><text font-family="Arial,Arial_MSFontService,sans-serif" font-weight="400" font-size="21" transform="translate(1051.64 250)">47</text></g><g clip-path="url(#clip30)"><text font-family="Arial,Arial_MSFontService,sans-serif" font-weight="400" font-size="21" transform="translate(131.6 309)">3</text></g><g clip-path="url(#clip31)"><text font-family="Arial,Arial_MSFontService,sans-serif" font-weight="400" font-size="21" transform="translate(264.725 309)">1</text></g><g clip-path="url(#clip32)"><text font-family="Arial,Arial_MSFontService,sans-serif" font-weight="400" font-size="21" transform="translate(397.85 309)">4</text></g><g clip-path="url(#clip33)"><text font-family="Arial,Arial_MSFontService,sans-serif" font-weight="400" font-size="21" transform="translate(530.975 309)">9</text></g><g clip-path="url(#clip34)"><text font-family="Arial,Arial_MSFontService,sans-serif" font-weight="400" font-size="21" transform="translate(652.267 309)">18</text></g><g clip-path="url(#clip35)"><text font-family="Arial,Arial_MSFontService,sans-serif" font-weight="400" font-size="21" transform="translate(797.225 309)">5</text></g><g clip-path="url(#clip36)"><text font-family="Arial,Arial_MSFontService,sans-serif" font-weight="400" font-size="21" transform="translate(930.35 309)">5</text></g><g clip-path="url(#clip37)"><text font-family="Arial,Arial_MSFontService,sans-serif" font-weight="400" font-size="21" transform="translate(1051.64 309)">42</text></g><g clip-path="url(#clip38)"><text font-family="Arial,Arial_MSFontService,sans-serif" font-weight="400" font-size="21" transform="translate(131.6 368)">4</text></g><g clip-path="url(#clip39)"><text font-family="Arial,Arial_MSFontService,sans-serif" font-weight="400" font-size="21" transform="translate(264.725 368)">4</text></g><g clip-path="url(#clip40)"><text font-family="Arial,Arial_MSFontService,sans-serif" font-weight="400" font-size="21" transform="translate(397.85 368)">8</text></g><g clip-path="url(#clip41)"><text font-family="Arial,Arial_MSFontService,sans-serif" font-weight="400" font-size="21" transform="translate(530.975 368)">8</text></g><g clip-path="url(#clip42)"><text font-family="Arial,Arial_MSFontService,sans-serif" font-weight="400" font-size="21" transform="translate(652.267 368)">10</text></g><g clip-path="url(#clip43)"><text font-family="Arial,Arial_MSFontService,sans-serif" font-weight="400" font-size="21" transform="translate(785.391 368)">10</text></g><g clip-path="url(#clip44)"><text font-family="Arial,Arial_MSFontService,sans-serif" font-weight="400" font-size="21" transform="translate(930.35 368)">2</text></g><g clip-path="url(#clip45)"><text font-family="Arial,Arial_MSFontService,sans-serif" font-weight="400" font-size="21" transform="translate(1051.64 368)">42</text></g><g clip-path="url(#clip46)"><text font-family="Arial,Arial_MSFontService,sans-serif" font-weight="400" font-size="21" transform="translate(131.6 427)">5</text></g><g clip-path="url(#clip47)"><text font-family="Arial,Arial_MSFontService,sans-serif" font-weight="400" font-size="21" transform="translate(264.725 427)">1</text></g><g clip-path="url(#clip48)"><text font-family="Arial,Arial_MSFontService,sans-serif" font-weight="400" font-size="21" transform="translate(397.85 427)">0</text></g><g clip-path="url(#clip49)"><text font-family="Arial,Arial_MSFontService,sans-serif" font-weight="400" font-size="21" transform="translate(530.975 427)">2</text></g><g clip-path="url(#clip50)"><text font-family="Arial,Arial_MSFontService,sans-serif" font-weight="400" font-size="21" transform="translate(664.1 427)">4</text></g><g clip-path="url(#clip51)"><text font-family="Arial,Arial_MSFontService,sans-serif" font-weight="400" font-size="21" transform="translate(797.225 427)">3</text></g><g clip-path="url(#clip52)"><text font-family="Arial,Arial_MSFontService,sans-serif" font-weight="400" font-size="21" transform="translate(930.35 427)">1</text></g><g clip-path="url(#clip53)"><text font-family="Arial,Arial_MSFontService,sans-serif" font-weight="400" font-size="21" transform="translate(1053.23 427)">11</text></g><g clip-path="url(#clip54)"><text font-family="Arial,Arial_MSFontService,sans-serif" font-weight="400" font-size="21" transform="translate(29.6001 486)">Total</text></g><g clip-path="url(#clip55)"><text font-family="Arial,Arial_MSFontService,sans-serif" font-weight="400" font-size="21" transform="translate(254.478 486)">11</text></g><g clip-path="url(#clip56)"><text font-family="Arial,Arial_MSFontService,sans-serif" font-weight="400" font-size="21" transform="translate(386.017 486)">21</text></g><g clip-path="url(#clip57)"><text font-family="Arial,Arial_MSFontService,sans-serif" font-weight="400" font-size="21" transform="translate(519.142 486)">49</text></g><g clip-path="url(#clip58)"><text font-family="Arial,Arial_MSFontService,sans-serif" font-weight="400" font-size="21" transform="translate(652.267 486)">52</text></g><g clip-path="url(#clip59)"><text font-family="Arial,Arial_MSFontService,sans-serif" font-weight="400" font-size="21" transform="translate(785.391 486)">26</text></g><g clip-path="url(#clip60)"><text font-family="Arial,Arial_MSFontService,sans-serif" font-weight="400" font-size="21" transform="translate(918.516 486)">12</text></g><g clip-path="url(#clip61)"><text font-family="Arial,Arial_MSFontService,sans-serif" font-weight="400" font-size="21" transform="translate(1039.81 486)">171</text></g></g></svg>